<?xml version="1.0" encoding="UTF-8"?>
<svg id="Warstwa_1" xmlns="http://www.w3.org/2000/svg" version="1.1" xmlns:xlink="http://www.w3.org/1999/xlink" viewBox="0 0 100 100">
  <!-- Generator: Adobe Illustrator 29.1.0, SVG Export Plug-In . SVG Version: 2.1.0 Build 142)  -->
  <defs>
    <style>
      .st0 {
        fill: url(#New_Gradient_Swatch);
      }
    </style>
    <linearGradient id="New_Gradient_Swatch" data-name="New Gradient Swatch" x1="88.5" y1="-25" x2="-16.8" y2="122.8" gradientUnits="userSpaceOnUse">
      <stop offset="0" stop-color="#b27f29"/>
      <stop offset="0" stop-color="#e0be61"/>
      <stop offset=".1" stop-color="#f7de7d"/>
      <stop offset=".3" stop-color="#fff3a6"/>
      <stop offset=".4" stop-color="#f7de7d"/>
      <stop offset=".5" stop-color="#b27f29"/>
      <stop offset=".6" stop-color="#e0be61"/>
      <stop offset=".6" stop-color="#f7de7d"/>
      <stop offset=".7" stop-color="#fff3a6"/>
      <stop offset=".8" stop-color="#f7de7d"/>
      <stop offset="1" stop-color="#b27f29"/>
    </linearGradient>
  </defs>
  <path class="st0" d="M98.8,29.5s0,0,0,0c0,0,0-.2,0-.3,0,0,0,0,0,0,0,0,0-.2,0-.3,0,0,0,0,0,0,0,0,0,0,0,0,0,0,0-.1-.1-.2,0,0,0,0,0,0l-12.3-15.9c0,0,0-.1-.1-.1,0,0,0,0,0,0,0,0-.1,0-.2-.1,0,0,0,0,0,0l-17.7-7.9c-.1,0-.3,0-.4,0H30.2c-.1,0-.3,0-.4,0l-16.8,7.9s0,0,0,0c0,0-.1,0-.2.1,0,0,0,0,0,0,0,0-.1.1-.1.2L1.4,28.6s0,0,0,0c0,0,0,0,0,.1,0,0,0,0,0,0,0,0,0,0,0,0,0,0,0,.2,0,.3,0,0,0,0,0,0,0,0,0,.2,0,.2,0,0,0,0,0,0,0,0,0,.2.1.2,0,0,0,0,0,0l47.8,65.4s0,0,0,0c0,0,0,0,0,0,0,0,0,0,.1.1,0,0,0,0,0,0,0,0,.1,0,.2,0,0,0,0,0,0,0,0,0,.2,0,.2,0,0,0,0,0,0,0h0c0,0,.2,0,.3,0,0,0,0,0,0,0,0,0,.1,0,.2,0,0,0,0,0,0,0,0,0,0,0,.1-.1,0,0,0,0,0,0,0,0,0,0,0,0L98.6,29.8s0,0,0,0c0,0,0-.2.1-.3ZM13.6,14.5l15.4,7.2-4.3,17L3.7,28.8l10-14.3ZM85.2,14.5l11.1,14.4-20.8,9.9-6.4-17.1,16.1-7.2ZM67.2,22.1l6.4,17H26.6l4.3-17h36.2ZM73.4,41.1l-23.4,51.2-23.1-51.2h46.6ZM24.6,40.8l20.6,45.5L5.3,31.7l19.3,9.1ZM75.7,40.8l19-9.1-39.8,54.4,20.8-45.3ZM30.4,6.4h37.3l15.5,6.9-15.5,6.9H30.4l-14.7-6.9,14.7-6.9Z"/>
</svg>