<svg width="128" height="49" viewBox="0 0 128 49" fill="none" xmlns="http://www.w3.org/2000/svg">
<g clip-path="url(#clip0_3325_2105)">
<path d="M5.48162 34.4138C5.3589 34.4138 5.23618 34.3732 5.11345 34.2513C5.03164 34.17 4.94982 34.0481 4.94982 33.8856V29.2131L0.0818153 20.5995C0.0818153 20.5995 0.0818153 20.5183 0.0409076 20.5183C0 20.4777 0 20.3964 0 20.3558C0 20.2339 0.0409076 20.1526 0.122723 20.0714C0.204538 19.9901 0.286353 19.9495 0.409076 19.9495H2.24992C2.41355 19.9495 2.53627 19.9495 2.659 20.0714C2.78172 20.1932 2.82263 20.2339 2.86353 20.3558L6.38159 26.369L9.89965 20.3558C9.94056 20.2745 10.0224 20.1526 10.1451 20.0714C10.2678 19.9901 10.3905 19.9495 10.5542 19.9495H12.395C12.5177 19.9495 12.6405 19.9495 12.7223 20.0714C12.8041 20.1932 12.845 20.2745 12.845 20.3964C12.845 20.5183 12.845 20.4777 12.845 20.5183C12.845 20.5183 12.845 20.5995 12.8041 20.5995L7.89517 29.2131V33.8856C7.89517 34.0075 7.85427 34.1294 7.73154 34.2513C7.64973 34.3326 7.52701 34.4138 7.36338 34.4138H5.48162Z" fill="#172B4C"/>
<path d="M17.713 34.617C16.6084 34.617 15.6676 34.4139 14.9312 34.0482C14.1949 33.6826 13.6222 33.1137 13.2131 32.423C12.804 31.7323 12.5995 30.8791 12.5586 29.9446C12.5586 29.7008 12.5586 29.3758 12.5586 29.0507C12.5586 28.7257 12.5586 28.4006 12.5586 28.1568C12.5995 27.2224 12.8449 26.3691 13.254 25.6784C13.6631 24.9877 14.2358 24.4595 15.0131 24.0532C15.7903 23.6469 16.6903 23.4844 17.7539 23.4844C18.8175 23.4844 19.7583 23.6875 20.4947 24.0532C21.231 24.4595 21.8446 24.9877 22.2537 25.6784C22.6628 26.3691 22.9082 27.1817 22.9491 28.1568C22.9491 28.4006 22.9491 28.7257 22.9491 29.0507C22.9491 29.3758 22.9491 29.7008 22.9491 29.9446C22.9082 30.8791 22.6628 31.6917 22.2537 32.423C21.8446 33.1137 21.2719 33.6826 20.5356 34.0482C19.7992 34.4139 18.8584 34.617 17.7539 34.617H17.713ZM17.713 32.5449C18.4493 32.5449 19.022 32.3011 19.4311 31.8542C19.8402 31.4073 20.0447 30.7165 20.0856 29.8227C20.0856 29.6195 20.0856 29.3351 20.0856 29.0101C20.0856 28.685 20.0856 28.4006 20.0856 28.1975C20.0856 27.3036 19.8402 26.6535 19.4311 26.166C19.022 25.6784 18.4493 25.4753 17.713 25.4753C16.9766 25.4753 16.4039 25.719 15.9948 26.166C15.5858 26.6535 15.3812 27.3036 15.3403 28.1975C15.3403 28.4006 15.3403 28.685 15.3403 29.0101C15.3403 29.3351 15.3403 29.6195 15.3403 29.8227C15.3403 30.7165 15.5858 31.4073 15.9948 31.8542C16.4039 32.3011 16.9766 32.5449 17.713 32.5449Z" fill="#172B4C"/>
<path d="M29.2489 34.617C28.3898 34.617 27.6535 34.4138 27.0398 34.0482C26.4262 33.6825 25.9353 33.1543 25.6081 32.423C25.2808 31.7322 25.1172 30.9196 25.1172 29.9445V24.1344C25.1172 24.0125 25.1581 23.8906 25.2808 23.7687C25.3626 23.6875 25.4854 23.6062 25.649 23.6062H27.4898C27.6535 23.6062 27.7762 23.6468 27.858 23.7687C27.9398 23.8906 27.9807 23.9719 27.9807 24.1344V29.8226C27.9807 31.5291 28.7171 32.3823 30.2306 32.3823C31.7442 32.3823 31.5397 32.1385 31.9488 31.6916C32.3578 31.2447 32.6033 30.5946 32.6033 29.8226V24.1344C32.6033 24.0125 32.6442 23.8906 32.7669 23.7687C32.8896 23.6468 32.9715 23.6062 33.1351 23.6062H34.9759C35.0987 23.6062 35.2214 23.6468 35.3441 23.7687C35.4259 23.85 35.5077 23.9719 35.5077 24.1344V33.8856C35.5077 34.0075 35.4668 34.1294 35.3441 34.2513C35.2623 34.3326 35.1396 34.4138 34.9759 34.4138H33.2987C33.1351 34.4138 33.0124 34.3732 32.9305 34.2513C32.8487 34.1294 32.8078 34.0482 32.8078 33.8856V33.0324C32.4397 33.52 31.9488 33.8856 31.417 34.17C30.8852 34.4545 30.1488 34.5763 29.3307 34.5763L29.2489 34.617Z" fill="#172B4C"/>
<path d="M38.6568 34.4138C38.5341 34.4138 38.4114 34.3732 38.2886 34.2513C38.2068 34.1701 38.125 34.0482 38.125 33.8856V24.1344C38.125 23.9719 38.1659 23.85 38.2886 23.7687C38.4114 23.6875 38.4932 23.6062 38.6568 23.6062H40.334C40.4567 23.6062 40.5795 23.6468 40.7022 23.7687C40.8249 23.8906 40.8658 23.9719 40.8658 24.1344V24.9876C41.1931 24.5407 41.6022 24.2157 42.093 23.9719C42.5839 23.7281 43.1975 23.6062 43.8521 23.6062H44.7111C44.8748 23.6062 44.9975 23.6468 45.0793 23.7687C45.1611 23.8906 45.202 23.9719 45.202 24.1344V25.6377C45.202 25.7596 45.1611 25.8815 45.0793 26.0034C44.9975 26.0846 44.8748 26.1659 44.7111 26.1659H43.0748C42.4203 26.1659 41.8885 26.3691 41.5203 26.7347C41.1522 27.1004 40.9885 27.6286 40.9885 28.2787V33.9669C40.9885 34.0888 40.9476 34.2107 40.8249 34.3326C40.7431 34.4138 40.6204 34.4951 40.4567 34.4951H38.6568V34.4138Z" fill="#172B4C"/>
<path d="M52.689 34.6169C51.3799 34.6169 50.3163 34.3732 49.4164 33.9262C48.5164 33.4793 47.821 32.8292 47.371 32.0166C46.921 31.204 46.6347 30.1883 46.5938 29.01C46.5938 28.4412 46.5938 27.8317 46.5938 27.1816C46.5938 26.5315 46.5938 25.9221 46.5938 25.3126C46.6347 24.175 46.921 23.1592 47.4119 22.306C47.9028 21.4528 48.5573 20.8027 49.4573 20.3558C50.3573 19.9088 51.4208 19.665 52.7299 19.665C54.0389 19.665 54.5298 19.7869 55.2662 20.0307C56.0025 20.2745 56.657 20.6402 57.1888 21.0465C57.7206 21.4528 58.1297 21.981 58.4161 22.5498C58.7024 23.1186 58.866 23.7687 58.866 24.4188C58.866 24.5407 58.866 24.6626 58.7433 24.7438C58.6615 24.8251 58.5388 24.8657 58.4161 24.8657H56.4525C56.2889 24.8657 56.1661 24.8657 56.0843 24.7438C56.0025 24.6219 55.9207 24.5407 55.8798 24.3781C55.6752 23.4843 55.2662 22.8342 54.7344 22.5092C54.2026 22.1841 53.5071 22.0216 52.7299 22.0216C51.9526 22.0216 51.0527 22.2654 50.5209 22.7936C49.9891 23.3218 49.6618 24.175 49.6209 25.3533C49.6209 26.4909 49.6209 27.6286 49.6209 28.8068C49.6209 29.9851 49.9482 30.8383 50.5209 31.3665C51.0936 31.8947 51.8299 32.1385 52.7299 32.1385C53.6299 32.1385 54.2026 31.976 54.7344 31.6509C55.2662 31.3259 55.6343 30.7164 55.8798 29.782C55.9207 29.5788 56.0025 29.4569 56.0843 29.3757C56.1661 29.2944 56.2889 29.2944 56.4525 29.2944H58.4161C58.5388 29.2944 58.6615 29.2944 58.7433 29.4163C58.8251 29.4975 58.866 29.6194 58.866 29.7413C58.866 30.432 58.7024 31.0415 58.4161 31.6103C58.1297 32.1791 57.7206 32.7073 57.1888 33.1136C56.657 33.5199 56.0025 33.8856 55.2662 34.1294C54.5298 34.3732 53.6708 34.4951 52.7299 34.4951L52.689 34.6169Z" fill="#172B4C"/>
<path d="M65.0438 34.617C64.1847 34.617 63.4484 34.4138 62.8348 34.0482C62.2212 33.6825 61.7303 33.1543 61.403 32.423C61.0757 31.7322 60.9121 30.9196 60.9121 29.9445V24.1344C60.9121 24.0125 60.953 23.8906 61.0757 23.7687C61.1576 23.6875 61.2803 23.6062 61.4439 23.6062H63.2848C63.4484 23.6062 63.5711 23.6468 63.6529 23.7687C63.7347 23.8906 63.7756 23.9719 63.7756 24.1344V29.8226C63.7756 31.5291 64.5529 32.3823 66.0256 32.3823C67.4982 32.3823 67.3346 32.1385 67.7437 31.6916C68.1528 31.2447 68.3982 30.5946 68.3982 29.8226V24.1344C68.3982 24.0125 68.4391 23.8906 68.5618 23.7687C68.6437 23.6875 68.7664 23.6062 68.93 23.6062H70.7709C70.8936 23.6062 71.0163 23.6468 71.139 23.7687C71.2208 23.85 71.3027 23.9719 71.3027 24.1344V33.8856C71.3027 34.0075 71.2617 34.1294 71.139 34.2513C71.0572 34.3326 70.9345 34.4138 70.7709 34.4138H69.0936C68.93 34.4138 68.8073 34.3732 68.7255 34.2513C68.6437 34.1294 68.6027 34.0482 68.6027 33.8856V33.0324C68.2346 33.52 67.7437 33.8856 67.2119 34.17C66.6801 34.4545 65.9438 34.5763 65.1256 34.5763L65.0438 34.617Z" fill="#172B4C"/>
<path d="M74.4517 34.4138C74.329 34.4138 74.2063 34.3732 74.0836 34.2513C74.0017 34.1701 73.9199 34.0482 73.9199 33.8856V24.1344C73.9199 23.9719 73.9608 23.85 74.0836 23.7687C74.1654 23.6875 74.2881 23.6062 74.4517 23.6062H76.1289C76.2517 23.6062 76.3744 23.6468 76.4971 23.7687C76.6198 23.8906 76.6607 23.9719 76.6607 24.1344V24.9876C76.988 24.5407 77.3971 24.2157 77.888 23.9719C78.3789 23.7281 78.9925 23.6062 79.647 23.6062H80.5061C80.6697 23.6062 80.7924 23.6468 80.8742 23.7687C80.956 23.8906 80.9969 23.9719 80.9969 24.1344V25.6377C80.9969 25.7596 80.956 25.8815 80.8742 26.0034C80.7924 26.0846 80.6697 26.1659 80.5061 26.1659H78.8697C78.2152 26.1659 77.6834 26.3691 77.3153 26.7347C76.9471 27.1004 76.7426 27.6286 76.7426 28.2787V33.9669C76.7426 34.0888 76.7016 34.2107 76.5789 34.3326C76.4971 34.4138 76.3744 34.4951 76.2108 34.4951H74.4108L74.4517 34.4138Z" fill="#172B4C"/>
<path d="M87.133 34.6169C85.5785 34.6169 84.3513 34.17 83.4922 33.3168C82.6331 32.4635 82.1013 31.204 82.0195 29.5788C82.0195 29.4569 82.0195 29.2538 82.0195 29.0506C82.0195 28.8475 82.0195 28.6849 82.0195 28.563C82.0604 27.5473 82.3059 26.6128 82.7559 25.8815C83.2059 25.1501 83.7786 24.5407 84.5149 24.1344C85.2512 23.7281 86.1512 23.5249 87.1739 23.5249C88.1966 23.5249 89.2602 23.7687 89.9965 24.2156C90.7738 24.6625 91.3465 25.3126 91.7146 26.1252C92.0828 26.9378 92.2874 27.8723 92.2874 28.9693V29.4163C92.2874 29.5382 92.2464 29.6601 92.1237 29.782C92.0419 29.8632 91.9192 29.9445 91.7556 29.9445H84.8422V30.107C84.8422 30.5946 84.9649 31.0415 85.1285 31.4478C85.2921 31.8541 85.5785 32.1791 85.9058 32.4229C86.233 32.6667 86.6421 32.7886 87.133 32.7886C87.6239 32.7886 87.8284 32.748 88.1148 32.6261C88.3602 32.5042 88.6057 32.3823 88.7693 32.2198C88.9329 32.0572 89.0556 31.9354 89.1375 31.8541C89.2602 31.6916 89.3829 31.5697 89.4238 31.5697C89.5056 31.5697 89.6283 31.529 89.7511 31.529H91.551C91.6737 31.529 91.7965 31.529 91.8783 31.6509C91.9601 31.7728 92.001 31.8541 92.001 31.976C92.001 32.1791 91.8783 32.4635 91.6737 32.7886C91.4692 33.1136 91.1419 33.398 90.7329 33.7231C90.3238 34.0481 89.8329 34.2919 89.2193 34.4951C88.6057 34.6982 87.9102 34.7795 87.133 34.7795V34.6169ZM84.8422 28.0755H89.4238V27.9942C89.4238 27.466 89.342 26.9785 89.1375 26.5722C88.9738 26.1659 88.6875 25.8408 88.3602 25.6377C87.992 25.3939 87.583 25.272 87.0921 25.272C86.6012 25.272 86.1921 25.3939 85.8239 25.6377C85.4558 25.8815 85.2103 26.2065 85.0467 26.5722C84.8831 26.9785 84.8013 27.4254 84.8013 27.9942V28.0755H84.8422Z" fill="#172B4C"/>
<path d="M87.8699 48.9999C84.7609 48.9999 82.2246 46.4809 82.2246 43.393C82.2246 40.3051 84.7609 37.786 87.8699 37.786C90.9788 37.786 89.3425 37.9485 90.038 38.2329L91.8788 36.4046C92.1652 36.1202 92.6152 36.1202 92.9015 36.4046C93.1879 36.689 93.1879 37.1359 92.9015 37.4203L91.347 38.9643C91.7152 39.2487 92.0834 39.6143 92.3697 39.98L93.9242 38.4361C96.1332 36.242 98.424 35.5107 101.001 36.1608C103.374 36.7702 105.787 38.3954 108.733 40.5082C112.169 42.9867 115.728 45.5057 119.491 45.5057C123.255 45.5057 123.132 44.7744 124.482 43.4336C127.223 40.7114 127.223 36.242 124.482 33.5198L123.787 32.8291C123.623 33.0323 123.46 33.1948 123.296 33.3573C123.132 33.5198 122.928 33.6823 122.764 33.8449L123.46 34.5356C125.628 36.689 125.628 40.2238 123.46 42.4178C122.396 43.4742 121.005 44.043 119.491 44.043C116.178 44.043 112.824 41.6459 109.551 39.3299C106.933 37.4609 104.274 35.5513 101.533 34.82C99.1604 34.1699 96.9923 34.4949 94.9469 35.7545C94.6196 35.9576 94.1696 35.8764 93.9651 35.5107C93.7606 35.1857 93.8424 34.7387 94.2105 34.5356C96.5832 33.0729 99.1604 32.7072 101.942 33.4386C104.928 34.2512 107.71 36.242 110.41 38.1923C113.478 40.3863 116.628 42.6616 119.491 42.6616C122.355 42.6616 121.66 42.2147 122.437 41.4427C124.073 39.8175 124.073 37.2172 122.437 35.592L121.496 34.6575C120.064 35.3076 118.346 35.4294 116.628 34.9825C97.4832 29.8225 92.0834 24.6624 90.5289 22.0215C88.7289 18.9336 90.2425 15.0737 91.8788 13.3266C92.0015 12.9203 92.247 12.0265 92.8606 11.4576C93.1469 11.1732 94.2515 10.3606 96.0923 12.189C97.9331 14.0173 97.115 15.1143 96.8286 15.3988C96.2559 15.9676 95.3969 16.252 94.9469 16.3739C94.6196 16.7802 94.3333 17.3896 94.1696 17.9991C93.9651 18.7711 94.006 19.4618 94.2515 19.9087C94.456 20.2338 94.3333 20.6807 94.006 20.8838C93.6788 21.087 93.2288 20.9651 93.0242 20.5994C92.1652 19.1367 92.7379 17.024 93.5969 15.7644L92.5742 14.7487C92.0015 15.48 91.5516 16.4551 91.347 17.4303C91.1016 18.446 90.9788 19.9493 91.797 21.3308C92.697 22.9153 95.9287 26.5314 107.178 30.5944C108.283 30.5944 109.428 30.4726 110.492 30.2288C107.465 29.213 104.765 28.1973 102.392 27.1003C99.2422 25.6782 96.7877 24.2155 95.0287 22.7935C94.7014 22.5497 94.6605 22.1027 94.9469 21.7777C95.1923 21.4527 95.6423 21.4527 95.9696 21.6964C97.8922 23.281 102.556 26.247 112.742 29.4568C114.133 28.8067 115.442 27.9129 116.587 26.7752C117.732 25.6376 118.632 24.378 119.287 22.9966C118.796 21.4527 118.305 19.9493 117.773 18.5679C117.651 18.2022 117.814 17.7959 118.182 17.6334C118.551 17.5115 118.96 17.6741 119.123 18.0397C119.451 18.893 119.737 19.7868 120.064 20.7213C120.351 19.6649 120.473 18.5679 120.473 17.5115C118.142 11.1326 114.91 4.30672 111.146 2.15332C109.755 1.38135 108.242 1.46261 107.219 1.70639C106.237 1.95017 105.256 2.3971 104.519 2.92529L105.542 3.94105C106.81 3.08782 108.937 2.51899 110.41 3.37223C111.269 3.85979 114.296 6.13508 118.019 15.1956C118.182 15.5613 118.019 15.9676 117.61 16.1301C117.201 16.2926 116.832 16.1301 116.669 15.7238C113.028 6.86642 110.205 4.91617 109.674 4.59113C109.224 4.34735 108.528 4.30672 107.751 4.50987C107.137 4.67239 106.524 4.9568 106.115 5.28185C105.992 5.68815 105.706 6.54138 105.133 7.15083C104.847 7.43525 103.742 8.24785 101.901 6.41949C101.328 5.85067 101.001 5.32248 100.838 4.83491C100.633 4.22546 100.756 3.61601 101.165 3.20971C101.738 2.60025 102.638 2.35647 103.047 2.23458C104.806 0.609374 108.692 -0.893943 111.801 0.893785C114.46 2.3971 119.655 7.80092 124.85 26.8158C125.3 28.5223 125.178 30.2288 124.523 31.6508L125.464 32.5853C128.778 35.8764 128.778 41.2396 125.464 44.5306C123.869 46.1152 121.741 47.009 119.451 47.009C115.196 47.009 111.474 44.3274 107.833 41.7271C105.133 39.7769 102.719 38.1517 100.592 37.5828C98.5058 37.0546 96.7468 37.6641 94.906 39.4925L93.0651 41.3208C93.3515 41.9709 93.5151 42.7022 93.5151 43.4742C93.5151 46.5621 90.9788 49.0812 87.8699 49.0812V48.9999ZM87.8699 39.208C85.5381 39.208 83.6564 41.077 83.6564 43.393C83.6564 45.7089 85.5381 47.5779 87.8699 47.5779C90.2016 47.5779 92.0834 45.7089 92.0834 43.393C92.0834 41.077 90.2016 39.208 87.8699 39.208ZM110.41 31.5696C112.374 32.2197 114.583 32.8697 116.996 33.5198C119.041 34.048 120.964 33.6417 122.273 32.3009C123.582 31.0007 124.032 29.0911 123.5 27.0596C123.05 25.3938 122.355 23.0779 121.537 20.5588C121.373 21.3714 121.087 22.1434 120.76 22.9153C121.21 24.378 121.66 25.8813 122.069 27.4659C122.478 28.9692 122.191 30.3913 121.25 31.3258C120.31 32.2603 118.878 32.5853 117.364 32.179C115.769 31.7321 114.255 31.3258 112.783 30.8789C112.005 31.2039 111.228 31.4477 110.41 31.6508V31.5696ZM114.664 29.9037C115.646 30.1881 116.669 30.4726 117.773 30.757C118.796 31.0414 119.655 30.8382 120.228 30.31C120.801 29.7818 120.964 28.8473 120.678 27.8722C120.391 26.8158 120.105 25.8001 119.819 24.7843C119.205 25.8001 118.428 26.7752 117.569 27.6691C116.71 28.5629 115.728 29.2943 114.664 29.9037ZM93.3515 13.3673L94.8242 14.8299C95.1514 14.7487 95.5605 14.5455 95.8059 14.3017C95.8059 14.2611 95.8059 13.8548 95.0696 13.1235C94.3333 12.3921 93.9242 12.3515 93.8833 12.3921C93.6378 12.6359 93.4333 13.0828 93.3515 13.4079V13.3673ZM103.21 3.57538C102.883 3.65664 102.474 3.85979 102.228 4.10357C102.228 4.1442 102.228 4.5505 102.965 5.28185C103.701 6.01319 104.11 6.05382 104.151 6.01319C104.397 5.76941 104.601 5.32248 104.683 5.03806L103.21 3.57538Z" fill="#2096F3"/>
<path d="M107.423 13.4484V17.1864C107.423 17.5521 107.709 17.8365 108.077 17.8365H111.677C112.045 17.8365 112.332 18.1209 112.332 18.4866C112.332 18.8522 112.045 19.1366 111.677 19.1366H108.077C107.709 19.1366 107.423 19.4211 107.423 19.7867V23.606C107.423 23.9716 107.136 24.2561 106.768 24.2561H106.686C106.318 24.2561 106.032 23.9716 106.032 23.606V19.7867C106.032 19.4211 105.746 19.1366 105.377 19.1366H101.778C101.409 19.1366 101.123 18.8522 101.123 18.4866C101.123 18.1209 101.409 17.8365 101.778 17.8365H105.377C105.746 17.8365 106.032 17.5521 106.032 17.1864V13.4484C106.032 13.0828 106.318 12.7983 106.686 12.7983H106.768C107.136 12.7983 107.423 13.0828 107.423 13.4484Z" fill="#172B4C"/>
</g>
<defs>
<clipPath id="clip0_3325_2105">
<rect width="128" height="49" fill="white"/>
</clipPath>
</defs>
</svg>
